<?xml version="1.0" standalone="no"?>
<!DOCTYPE svg PUBLIC "-//W3C//DTD SVG 20010904//EN"
 "http://www.w3.org/TR/2001/REC-SVG-20010904/DTD/svg10.dtd">
<svg version="1.0" xmlns="http://www.w3.org/2000/svg"
 width="96.000000pt" height="96.000000pt" viewBox="0 0 96.000000 96.000000"
 preserveAspectRatio="xMidYMid meet">
<metadata>
Created by potrace 1.14, written by Peter Selinger 2001-2017
</metadata>
<g transform="translate(0.000000,96.000000) scale(0.100000,-0.100000)"
fill="#000000" stroke="none">
<path d="M0 480 l0 -480 480 0 480 0 0 480 0 480 -480 0 -480 0 0 -480z m396
95 c54 -135 100 -245 104 -245 3 0 46 110 95 245 l90 245 125 -1 c99 -1 117
-3 86 -10 -69 -16 -66 -1 -66 -325 0 -321 -4 -301 65 -321 34 -9 15 -11 -130
-11 -130 0 -162 2 -135 10 62 18 60 6 60 311 0 154 -3 278 -6 274 -3 -3 -55
-137 -114 -297 -59 -160 -110 -294 -114 -297 -17 -18 -43 33 -150 293 -66 159
-123 293 -128 299 -5 6 -8 -96 -6 -251 3 -295 2 -288 83 -325 l40 -18 -135 0
-135 0 45 22 c78 38 81 53 78 334 -3 273 -2 267 -83 297 -39 14 -35 15 97 15
l136 1 98 -245z"/>
</g>
</svg>
